# xmcd CD database file
#
# Track frame offsets:
#	150
#	16918
#	32091
#	49751
#	63898
#	84212
#	100747
#	115305
#	138698
#	156692
#	172879
#	196204
#	209727
#	225832
#
# Disc length: 3240 seconds
#
# Revision: 1
# Processed by: cddbd v1.5.1PL0 Copyright (c) Steve Scherf et al.
# Submitted via: CDex 1.51
#
DISCID=b50ca60e
DTITLE=Lizz Wright -  August 29, 2005, Morning Becomes Eclectic
DYEAR=2005
DGENRE=Blues
TTITLE0=Lizz Wright - Hit The Ground
TTITLE1=Lizz Wright - When I Close My Eyes
TTITLE2=Lizz Wright - Chasing Strange
TTITLE3=Lizz Wright - I'm Confessin'
TTITLE4=Lizz Wright - A Taste Of Honey
TTITLE5=Lizz Wright - Stop
TTITLE6=Lizz Wright - Walk With Me Lord
TTITLE7=Lizz Wright - Blue Room
TTITLE8=Lizz Wright - Goodbye
TTITLE9=Lizz Wright - Eternity
TTITLE10=Lizz Wright - Open Your Eyes
TTITLE11=Lizz Wright - I'm Confessin
TTITLE12=Lizz Wrightt - Stop
TTITLE13=Lizz Wright - A taste of honey
EXTD=YEAR: 2005
EXTT0=
EXTT1=
EXTT2=
EXTT3=
EXTT4=
EXTT5=
EXTT6=
EXTT7=
EXTT8=
EXTT9=
EXTT10=
EXTT11=
EXTT12=
EXTT13=
PLAYORDER=
